<svg width="24" height="25" viewBox="0 0 24 25" fill="none" xmlns="http://www.w3.org/2000/svg">
<path d="M8.9101 21.1277C8.7201 21.1277 8.5301 21.0577 8.3801 20.9077C8.0901 20.6177 8.0901 20.1377 8.3801 19.8477L14.9001 13.3277C15.3801 12.8477 15.3801 12.0677 14.9001 11.5877L8.3801 5.06766C8.0901 4.77766 8.0901 4.29766 8.3801 4.00766C8.6701 3.71766 9.1501 3.71766 9.4401 4.00766L15.9601 10.5277C16.4701 11.0377 16.7601 11.7277 16.7601 12.4577C16.7601 13.1877 16.4801 13.8777 15.9601 14.3877L9.4401 20.9077C9.2901 21.0477 9.1001 21.1277 8.9101 21.1277Z" fill="#9AACD0"/>
</svg>
