<svg width="24" height="25" viewBox="0 0 24 25" fill="none" xmlns="http://www.w3.org/2000/svg">
<path fill-rule="evenodd" clip-rule="evenodd" d="M5 17.2076C5.19891 17.2076 5.38968 17.2867 5.53033 17.4273C5.67098 17.568 5.75 17.7587 5.75 17.9576V19.9576C5.75 20.0956 5.862 20.2076 6 20.2076H18C18.0663 20.2076 18.1299 20.1813 18.1768 20.1344C18.2237 20.0875 18.25 20.0239 18.25 19.9576V17.9576C18.25 17.7587 18.329 17.568 18.4697 17.4273C18.6103 17.2867 18.8011 17.2076 19 17.2076C19.1989 17.2076 19.3897 17.2867 19.5303 17.4273C19.671 17.568 19.75 17.7587 19.75 17.9576V19.9576C19.75 20.4218 19.5656 20.8669 19.2374 21.1951C18.9092 21.5233 18.4641 21.7076 18 21.7076H6C5.53587 21.7076 5.09075 21.5233 4.76256 21.1951C4.43437 20.8669 4.25 20.4218 4.25 19.9576V17.9576C4.25 17.7587 4.32902 17.568 4.46967 17.4273C4.61032 17.2867 4.80109 17.2076 5 17.2076Z" fill="#7545FF"/>
<path d="M10.7381 4.70764C10.4898 4.70725 10.2504 4.80017 10.0674 4.96798C9.88443 5.1358 9.77117 5.36625 9.7501 5.61365C9.59753 7.36613 9.57012 9.12726 9.6681 10.8836C9.42144 10.897 9.17477 10.9126 8.9281 10.9306L7.4381 11.0396C7.30688 11.0493 7.1804 11.0928 7.07104 11.1659C6.96168 11.2391 6.87319 11.3394 6.81423 11.457C6.75526 11.5747 6.72785 11.7056 6.73466 11.837C6.74148 11.9684 6.78229 12.0958 6.8531 12.2066C7.91585 13.8681 9.28402 15.313 10.8851 16.4646L11.4821 16.8936C11.6332 17.0018 11.8143 17.0599 12.0001 17.0599C12.1859 17.0599 12.367 17.0018 12.5181 16.8936L13.1151 16.4646C14.7162 15.313 16.0843 13.8681 17.1471 12.2066C17.2179 12.0958 17.2587 11.9684 17.2655 11.837C17.2724 11.7056 17.2449 11.5747 17.186 11.457C17.127 11.3394 17.0385 11.2391 16.9292 11.1659C16.8198 11.0928 16.6933 11.0493 16.5621 11.0396L15.0721 10.9306C14.8256 10.9128 14.5789 10.8971 14.3321 10.8836C14.4304 9.12729 14.4033 7.36615 14.2511 5.61365C14.23 5.36607 14.1166 5.13548 13.9334 4.96764C13.7502 4.79981 13.5106 4.707 13.2621 4.70764H10.7381Z" fill="#7545FF"/>
</svg>
