<svg width="16" height="16" viewBox="0 0 16 16" fill="none" xmlns="http://www.w3.org/2000/svg">
<path d="M11.5353 6.34944L13.6567 8.47077C14.0009 8.81042 14.2745 9.2148 14.4618 9.66063C14.6491 10.1065 14.7464 10.5849 14.748 11.0685C14.7496 11.5521 14.6556 12.0312 14.4713 12.4783C14.287 12.9254 14.016 13.3316 13.6741 13.6735C13.3321 14.0155 12.9259 14.2864 12.4789 14.4707C12.0318 14.655 11.5527 14.7491 11.0691 14.7475C10.5855 14.7458 10.107 14.6486 9.66119 14.4613C9.21535 14.274 8.81097 14.0003 8.47132 13.6561L7.76466 12.9494C7.66911 12.8572 7.59287 12.7469 7.54041 12.6249C7.48794 12.503 7.46029 12.3718 7.45908 12.239C7.45786 12.1062 7.4831 11.9745 7.53332 11.8516C7.58355 11.7287 7.65775 11.617 7.7516 11.5231C7.84544 11.4291 7.95706 11.3548 8.07993 11.3045C8.2028 11.2541 8.33447 11.2288 8.46725 11.2299C8.60003 11.2309 8.73126 11.2585 8.85329 11.3108C8.97532 11.3632 9.0857 11.4393 9.17799 11.5348L9.88599 12.2421C10.1991 12.5524 10.6223 12.726 11.063 12.7249C11.5038 12.7239 11.9262 12.5483 12.2378 12.2366C12.5495 11.9249 12.7249 11.5025 12.7258 11.0617C12.7267 10.6209 12.553 10.1978 12.2427 9.88477L10.1213 7.76344C9.89204 7.53405 9.60081 7.37655 9.28333 7.31024C8.96585 7.24392 8.63593 7.27168 8.33399 7.3901C8.22644 7.43277 8.12555 7.47633 8.03133 7.52077L7.72199 7.66544C7.30866 7.8521 6.99066 7.9321 6.58599 7.5281C6.00466 6.94677 6.15532 6.4101 6.86399 5.92144C7.56993 5.43568 8.42371 5.21251 9.27706 5.2907C10.1304 5.36888 10.9294 5.74348 11.5353 6.34944ZM7.52866 2.34277L8.23532 3.04944C8.41757 3.23795 8.51849 3.49051 8.51634 3.75271C8.51418 4.01491 8.40913 4.26577 8.22381 4.45127C8.03849 4.63676 7.78772 4.74205 7.52553 4.74445C7.26333 4.74685 7.01068 4.64618 6.82199 4.4641L6.11466 3.75744C5.96096 3.59821 5.77709 3.47119 5.57377 3.38378C5.37046 3.29638 5.15177 3.25034 4.93047 3.24835C4.70917 3.24637 4.4897 3.28848 4.28485 3.37222C4.07999 3.45596 3.89387 3.57967 3.73734 3.73611C3.58081 3.89255 3.457 4.0786 3.37314 4.28341C3.28928 4.48821 3.24705 4.70766 3.24891 4.92896C3.25077 5.15026 3.29669 5.36897 3.38398 5.57234C3.47127 5.7757 3.59819 5.95965 3.75733 6.11344L5.87866 8.23477C6.10794 8.46416 6.39918 8.62166 6.71665 8.68797C7.03413 8.75429 7.36406 8.72653 7.66599 8.6081C7.77355 8.56544 7.87444 8.52188 7.96866 8.47744L8.27799 8.33277C8.69133 8.1461 9.00999 8.0661 9.41399 8.4701C9.99533 9.05144 9.84466 9.5881 9.13599 10.0768C8.43005 10.5625 7.57627 10.7857 6.72293 10.7075C5.86958 10.6293 5.07057 10.2547 4.46466 9.64877L2.34333 7.52744C1.9991 7.18779 1.72546 6.78341 1.53816 6.33758C1.35085 5.89174 1.25359 5.41326 1.25197 4.92968C1.25035 4.4461 1.34441 3.96698 1.52872 3.5199C1.71303 3.07282 1.98395 2.66662 2.3259 2.32467C2.66784 1.98273 3.07404 1.7118 3.52112 1.5275C3.9682 1.34319 4.44733 1.24913 4.9309 1.25075C5.41448 1.25237 5.89296 1.34963 6.3388 1.53693C6.78463 1.72424 7.18901 1.99854 7.52866 2.34277Z" fill="#0097FE"/>
</svg>
