<svg width="80" height="81" viewBox="0 0 80 81" fill="none" xmlns="http://www.w3.org/2000/svg">
<path d="M52.6667 7.86656C51.3 6.4999 48.9333 7.43323 48.9333 9.33323V20.9666C48.9333 25.8332 53.0667 29.8666 58.1 29.8666C61.2667 29.8999 65.6667 29.8999 69.4333 29.8999C71.3333 29.8999 72.3333 27.6666 71 26.3332C66.2 21.4999 57.6 12.7999 52.6667 7.86656Z" fill="white"/>
<path d="M68.3334 34.4667H58.7C50.8 34.4667 44.3667 28.0334 44.3667 20.1334V10.5001C44.3667 8.66675 42.8667 7.16675 41.0334 7.16675H26.9C16.6334 7.16675 8.33337 13.8334 8.33337 25.7334V55.2668C8.33337 67.1668 16.6334 73.8334 26.9 73.8334H53.1C63.3667 73.8334 71.6667 67.1668 71.6667 55.2668V37.8001C71.6667 35.9667 70.1667 34.4667 68.3334 34.4667ZM38.3334 59.6668H25C23.6334 59.6668 22.5 58.5334 22.5 57.1668C22.5 55.8001 23.6334 54.6668 25 54.6668H38.3334C39.7 54.6668 40.8334 55.8001 40.8334 57.1668C40.8334 58.5334 39.7 59.6668 38.3334 59.6668ZM45 46.3334H25C23.6334 46.3334 22.5 45.2001 22.5 43.8334C22.5 42.4668 23.6334 41.3334 25 41.3334H45C46.3667 41.3334 47.5 42.4668 47.5 43.8334C47.5 45.2001 46.3667 46.3334 45 46.3334Z" fill="white"/>
</svg>
