<svg width="80" height="80" viewBox="0 0 80 80" fill="none" xmlns="http://www.w3.org/2000/svg">
<path opacity="0.998" fill-rule="evenodd" clip-rule="evenodd" d="M53.6719 1.79688C53.6458 8.56791 53.6719 15.3387 53.75 22.1094C54.2969 24.1145 55.573 25.3906 57.5781 25.9375C63.88 26.0156 70.182 26.0417 76.4844 26.0156C76.5105 41.2761 76.4844 56.5366 76.4063 71.7969C75.7375 75.0698 73.7844 77.1272 70.5469 77.9688C54.0364 78.073 37.5261 78.073 21.0156 77.9688C17.7781 77.1272 15.825 75.0698 15.1563 71.7969C15.0782 70.1311 15.0521 68.4644 15.0781 66.7969C31.1198 66.823 36.4949 66.7969 52.5365 66.7188C53.0876 66.5844 53.426 66.2458 53.5521 65.7031C53.6563 56.6406 53.6563 47.5781 53.5521 38.5156C53.3697 38.125 53.0833 37.8386 52.6927 37.6563C36.5729 37.6302 31.1458 37.552 15.0781 37.4219C15.0521 27.63 15.0781 17.8384 15.1563 8.04688C15.825 4.77391 17.7781 2.71661 21.0156 1.875C31.9009 1.79688 42.7864 1.77083 53.6719 1.79688Z" fill="#FFC8A6"/>
<rect x="3.20001" y="37.3334" width="61.3333" height="29.3333" rx="5" fill="#7545FF"/>
<path d="M55.3388 46.3V57.5H53.2108L47.6268 50.7V57.5H45.0668V46.3H47.2108L52.7788 53.1V46.3H55.3388Z" fill="white"/>
<path d="M37.3107 57.692C36.1481 57.692 35.0974 57.4414 34.1587 56.94C33.2307 56.4387 32.5001 55.7507 31.9667 54.876C31.4441 53.9907 31.1827 52.9987 31.1827 51.9C31.1827 50.8014 31.4441 49.8147 31.9667 48.94C32.5001 48.0547 33.2307 47.3614 34.1587 46.86C35.0974 46.3587 36.1481 46.108 37.3107 46.108C38.4734 46.108 39.5187 46.3587 40.4467 46.86C41.3747 47.3614 42.1054 48.0547 42.6387 48.94C43.1721 49.8147 43.4387 50.8014 43.4387 51.9C43.4387 52.9987 43.1721 53.9907 42.6387 54.876C42.1054 55.7507 41.3747 56.4387 40.4467 56.94C39.5187 57.4414 38.4734 57.692 37.3107 57.692ZM37.3107 55.484C37.9721 55.484 38.5694 55.3347 39.1027 55.036C39.6361 54.7267 40.0521 54.3 40.3507 53.756C40.6601 53.212 40.8147 52.5934 40.8147 51.9C40.8147 51.2067 40.6601 50.588 40.3507 50.044C40.0521 49.5 39.6361 49.0787 39.1027 48.78C38.5694 48.4707 37.9721 48.316 37.3107 48.316C36.6494 48.316 36.0521 48.4707 35.5187 48.78C34.9854 49.0787 34.5641 49.5 34.2547 50.044C33.9561 50.588 33.8067 51.2067 33.8067 51.9C33.8067 52.5934 33.9561 53.212 34.2547 53.756C34.5641 54.3 34.9854 54.7267 35.5187 55.036C36.0521 55.3347 36.6494 55.484 37.3107 55.484Z" fill="white"/>
<path d="M25.6836 57.692C24.7983 57.692 23.9396 57.5747 23.1076 57.34C22.2863 57.0947 21.625 56.78 21.1236 56.396L22.0036 54.444C22.4836 54.796 23.0543 55.0787 23.7156 55.292C24.377 55.5054 25.0383 55.612 25.6996 55.612C26.4356 55.612 26.9796 55.5054 27.3316 55.292C27.6836 55.068 27.8596 54.7747 27.8596 54.412C27.8596 54.1454 27.753 53.9267 27.5396 53.756C27.337 53.5747 27.0703 53.4307 26.7396 53.324C26.4196 53.2174 25.9823 53.1 25.4276 52.972C24.5743 52.7694 23.8756 52.5667 23.3316 52.364C22.7876 52.1614 22.3183 51.836 21.9236 51.388C21.5396 50.94 21.3476 50.3427 21.3476 49.596C21.3476 48.9454 21.5236 48.3587 21.8756 47.836C22.2276 47.3027 22.7556 46.8814 23.4596 46.572C24.1743 46.2627 25.0436 46.108 26.0676 46.108C26.7823 46.108 27.481 46.1934 28.1636 46.364C28.8463 46.5347 29.4436 46.78 29.9556 47.1L29.1556 49.068C28.121 48.4814 27.0863 48.188 26.0516 48.188C25.3263 48.188 24.7876 48.3054 24.4356 48.54C24.0943 48.7747 23.9236 49.084 23.9236 49.468C23.9236 49.852 24.121 50.14 24.5156 50.332C24.921 50.5134 25.5343 50.6947 26.3556 50.876C27.209 51.0787 27.9076 51.2814 28.4516 51.484C28.9956 51.6867 29.4596 52.0067 29.8436 52.444C30.2383 52.8814 30.4356 53.4734 30.4356 54.22C30.4356 54.86 30.2543 55.4467 29.8916 55.98C29.5396 56.5027 29.0063 56.9187 28.2916 57.228C27.577 57.5374 26.7076 57.692 25.6836 57.692Z" fill="white"/>
<path d="M15.7314 57.692C14.974 57.692 14.2754 57.5534 13.6354 57.276C13.006 56.988 12.4887 56.5827 12.0834 56.06L13.5234 54.332C14.1314 55.1534 14.8247 55.564 15.6034 55.564C16.6594 55.564 17.1874 54.9454 17.1874 53.708V48.38H13.2514V46.3H19.7634V53.564C19.7634 54.9401 19.422 55.9747 18.7394 56.668C18.0567 57.3507 17.054 57.692 15.7314 57.692Z" fill="white"/>
<path fill-rule="evenodd" clip-rule="evenodd" d="M53.6719 1.79688C61.3861 9.77133 68.9903 17.8442 76.4844 26.0156C70.182 26.0417 63.88 26.0156 57.5781 25.9375C55.573 25.3906 54.2969 24.1145 53.75 22.1094C53.6719 15.3387 53.6458 8.56791 53.6719 1.79688Z" fill="#FF7F59"/>
</svg>
