<svg width="969" height="564" viewBox="0 0 969 564" fill="none" xmlns="http://www.w3.org/2000/svg">
<path d="M-134.837 158.958C-164.741 182.204 -204.613 162.186 -220.811 149.272L-318 521.489L962.272 563C970.372 393.727 976.103 48.8145 934.237 23.3543C881.905 -8.47093 855.739 51.0285 846.394 69.0167C837.049 87.0048 805.276 100.842 779.109 95.3071C752.943 89.7723 696.873 158.958 657.624 175.562C618.374 192.166 564.173 100.842 539.876 85.6212C515.579 70.4005 495.02 103.609 485.675 100.842C476.33 98.0745 437.08 10.901 409.045 12.2847C381.01 13.6684 356.713 95.3071 336.154 85.6212C315.595 75.9353 293.167 149.272 224.013 197.701C154.86 246.131 126.825 13.6684 89.4444 2.59879C52.0641 -8.47087 40.8501 39.9589 3.46988 85.6212C-33.9103 131.284 -50.7314 96.6909 -61.9455 85.6212C-73.1596 74.5516 -97.4567 129.9 -134.837 158.958Z" fill="url(#paint0_linear_8_19355)" stroke="white" stroke-opacity="0.4" stroke-width="2" stroke-linecap="round" stroke-linejoin="round"/>
<defs>
<linearGradient id="paint0_linear_8_19355" x1="326.809" y1="-52.9646" x2="326.809" y2="450.92" gradientUnits="userSpaceOnUse">
<stop stop-color="#6572EB" stop-opacity="0.16"/>
<stop offset="0.72165" stop-color="#6572EB" stop-opacity="0"/>
</linearGradient>
</defs>
</svg>
