<svg width="1743" height="547" viewBox="0 0 1743 547" fill="none" xmlns="http://www.w3.org/2000/svg">
<path d="M249.58 215.615C209.139 247.052 155.218 219.982 133.312 202.516L1.87842 705.887L1733.26 762.025C1744.22 533.107 1751.97 66.6623 1695.35 32.231C1624.58 -10.8081 1589.19 69.6564 1576.55 93.9828C1563.92 118.309 1520.95 137.022 1485.56 129.537C1450.18 122.052 1374.35 215.615 1321.27 238.07C1268.19 260.525 1194.89 137.022 1162.03 116.438C1129.17 95.8543 1101.37 140.764 1088.73 137.022C1076.1 133.279 1023.02 15.3896 985.103 17.2609C947.19 19.1322 914.331 129.537 886.528 116.438C858.725 103.339 828.394 202.516 734.874 268.011C641.354 333.505 603.44 19.1323 552.889 4.16213C502.337 -10.808 487.172 54.6863 436.621 116.438C386.069 178.19 363.321 131.408 348.156 116.438C332.99 101.468 300.132 176.319 249.58 215.615Z" fill="url(#paint0_linear_53_1134)" stroke="white" stroke-opacity="0.4" stroke-width="2.70471" stroke-linecap="round" stroke-linejoin="round"/>
<defs>
<linearGradient id="paint0_linear_53_1134" x1="873.89" y1="-70.9794" x2="873.89" y2="610.452" gradientUnits="userSpaceOnUse">
<stop stop-color="#6572EB" stop-opacity="0.16"/>
<stop offset="0.72165" stop-color="#6572EB" stop-opacity="0"/>
</linearGradient>
</defs>
</svg>
