<svg width="208" height="48" viewBox="0 0 208 48" fill="none" xmlns="http://www.w3.org/2000/svg">
<path d="M153.647 35.3114C153.17 35.6641 152.579 35.9338 151.874 36.1205C151.189 36.2864 150.463 36.3694 149.695 36.3694C147.704 36.3694 146.158 35.8611 145.059 34.8446C143.98 33.8281 143.441 32.3344 143.441 30.3636V23.4866H140.858V19.7524H143.441V15.676H148.295V19.7524H152.465V23.4866H148.295V30.3014C148.295 31.0067 148.471 31.5565 148.824 31.9507C149.197 32.3241 149.716 32.5108 150.38 32.5108C151.148 32.5108 151.801 32.3033 152.34 31.8884L153.647 35.3114Z" fill="white"/>
<path d="M153.647 35.3114C153.17 35.6641 152.579 35.9338 151.874 36.1205C151.189 36.2864 150.463 36.3694 149.695 36.3694C147.704 36.3694 146.158 35.8611 145.059 34.8446C143.98 33.8281 143.441 32.3344 143.441 30.3636V23.4866H140.858V19.7524H143.441V15.676H148.295V19.7524H152.465V23.4866H148.295V30.3014C148.295 31.0067 148.471 31.5565 148.824 31.9507C149.197 32.3241 149.716 32.5108 150.38 32.5108C151.148 32.5108 151.801 32.3033 152.34 31.8884L153.647 35.3114Z" fill="url(#paint0_linear_11_7226)"/>
<path d="M130.425 36.3694C128.661 36.3694 127.074 36.0064 125.664 35.2803C124.274 34.5335 123.185 33.5066 122.396 32.1996C121.608 30.8927 121.214 29.4094 121.214 27.7497C121.214 26.0901 121.608 24.6068 122.396 23.2999C123.185 21.9929 124.274 20.9764 125.664 20.2503C127.074 19.5035 128.661 19.1301 130.425 19.1301C132.188 19.1301 133.765 19.5035 135.155 20.2503C136.545 20.9764 137.634 21.9929 138.422 23.2999C139.21 24.6068 139.605 26.0901 139.605 27.7497C139.605 29.4094 139.21 30.8927 138.422 32.1996C137.634 33.5066 136.545 34.5335 135.155 35.2803C133.765 36.0064 132.188 36.3694 130.425 36.3694ZM130.425 32.3863C131.67 32.3863 132.686 31.9714 133.474 31.1416C134.283 30.291 134.688 29.1604 134.688 27.7497C134.688 26.3391 134.283 25.2188 133.474 24.389C132.686 23.5384 131.67 23.1132 130.425 23.1132C129.18 23.1132 128.153 23.5384 127.344 24.389C126.535 25.2188 126.131 26.3391 126.131 27.7497C126.131 29.1604 126.535 30.291 127.344 31.1416C128.153 31.9714 129.18 32.3863 130.425 32.3863Z" fill="white"/>
<path d="M130.425 36.3694C128.661 36.3694 127.074 36.0064 125.664 35.2803C124.274 34.5335 123.185 33.5066 122.396 32.1996C121.608 30.8927 121.214 29.4094 121.214 27.7497C121.214 26.0901 121.608 24.6068 122.396 23.2999C123.185 21.9929 124.274 20.9764 125.664 20.2503C127.074 19.5035 128.661 19.1301 130.425 19.1301C132.188 19.1301 133.765 19.5035 135.155 20.2503C136.545 20.9764 137.634 21.9929 138.422 23.2999C139.21 24.6068 139.605 26.0901 139.605 27.7497C139.605 29.4094 139.21 30.8927 138.422 32.1996C137.634 33.5066 136.545 34.5335 135.155 35.2803C133.765 36.0064 132.188 36.3694 130.425 36.3694ZM130.425 32.3863C131.67 32.3863 132.686 31.9714 133.474 31.1416C134.283 30.291 134.688 29.1604 134.688 27.7497C134.688 26.3391 134.283 25.2188 133.474 24.389C132.686 23.5384 131.67 23.1132 130.425 23.1132C129.18 23.1132 128.153 23.5384 127.344 24.389C126.535 25.2188 126.131 26.3391 126.131 27.7497C126.131 29.1604 126.535 30.291 127.344 31.1416C128.153 31.9714 129.18 32.3863 130.425 32.3863Z" fill="url(#paint1_linear_11_7226)"/>
<path d="M113.967 21.5884C114.548 20.7793 115.326 20.1673 116.301 19.7524C117.297 19.3375 118.438 19.1301 119.724 19.1301V23.6111C119.185 23.5696 118.822 23.5488 118.635 23.5488C117.245 23.5488 116.156 23.943 115.368 24.7313C114.579 25.4989 114.185 26.6606 114.185 28.2165V36.1205H109.331V19.379H113.967V21.5884Z" fill="white"/>
<path d="M113.967 21.5884C114.548 20.7793 115.326 20.1673 116.301 19.7524C117.297 19.3375 118.438 19.1301 119.724 19.1301V23.6111C119.185 23.5696 118.822 23.5488 118.635 23.5488C117.245 23.5488 116.156 23.943 115.368 24.7313C114.579 25.4989 114.185 26.6606 114.185 28.2165V36.1205H109.331V19.379H113.967V21.5884Z" fill="url(#paint2_linear_11_7226)"/>
<path d="M94.8774 27.563L91.9523 30.6125V36.1204H86.9423V14.3378H91.9523V24.5134L101.599 14.3378H107.2L98.1759 24.0466L107.729 36.1204H101.848L94.8774 27.563Z" fill="white"/>
<path d="M94.8774 27.563L91.9523 30.6125V36.1204H86.9423V14.3378H91.9523V24.5134L101.599 14.3378H107.2L98.1759 24.0466L107.729 36.1204H101.848L94.8774 27.563Z" fill="url(#paint3_linear_11_7226)"/>
<path d="M77.2403 19.3789H82.0947V36.1204H77.2403V19.3789ZM79.6675 17.0451C78.7754 17.0451 78.0493 16.7858 77.4892 16.2671C76.9291 15.7485 76.649 15.1054 76.649 14.3378C76.649 13.5702 76.9291 12.9271 77.4892 12.4085C78.0493 11.8899 78.7754 11.6306 79.6675 11.6306C80.5595 11.6306 81.2856 11.8795 81.8457 12.3774C82.4058 12.8753 82.6859 13.4976 82.6859 14.2445C82.6859 15.0535 82.4058 15.7278 81.8457 16.2671C81.2856 16.7858 80.5595 17.0451 79.6675 17.0451Z" fill="white"/>
<path d="M77.2403 19.3789H82.0947V36.1204H77.2403V19.3789ZM79.6675 17.0451C78.7754 17.0451 78.0493 16.7858 77.4892 16.2671C76.9291 15.7485 76.649 15.1054 76.649 14.3378C76.649 13.5702 76.9291 12.9271 77.4892 12.4085C78.0493 11.8899 78.7754 11.6306 79.6675 11.6306C80.5595 11.6306 81.2856 11.8795 81.8457 12.3774C82.4058 12.8753 82.6859 13.4976 82.6859 14.2445C82.6859 15.0535 82.4058 15.7278 81.8457 16.2671C81.2856 16.7858 80.5595 17.0451 79.6675 17.0451Z" fill="url(#paint4_linear_11_7226)"/>
<path d="M74.5153 35.3114C74.0381 35.6641 73.4469 35.9338 72.7415 36.1205C72.0569 36.2864 71.3309 36.3694 70.5633 36.3694C68.5717 36.3694 67.0262 35.8611 65.9267 34.8446C64.8479 33.8281 64.3086 32.3344 64.3086 30.3636V23.4866H61.7258V19.7524H64.3086V15.676H69.163V19.7524H73.3328V23.4866H69.163V30.3014C69.163 31.0067 69.3393 31.5565 69.692 31.9507C70.0654 32.3241 70.584 32.5108 71.2479 32.5108C72.0155 32.5108 72.6689 32.3033 73.2083 31.8884L74.5153 35.3114Z" fill="white"/>
<path d="M74.5153 35.3114C74.0381 35.6641 73.4469 35.9338 72.7415 36.1205C72.0569 36.2864 71.3309 36.3694 70.5633 36.3694C68.5717 36.3694 67.0262 35.8611 65.9267 34.8446C64.8479 33.8281 64.3086 32.3344 64.3086 30.3636V23.4866H61.7258V19.7524H64.3086V15.676H69.163V19.7524H73.3328V23.4866H69.163V30.3014C69.163 31.0067 69.3393 31.5565 69.692 31.9507C70.0654 32.3241 70.584 32.5108 71.2479 32.5108C72.0155 32.5108 72.6689 32.3033 73.2083 31.8884L74.5153 35.3114Z" fill="url(#paint5_linear_11_7226)"/>
<path d="M52.3777 19.1301C54.4523 19.1301 56.1223 19.7524 57.3877 20.9971C58.6739 22.2419 59.317 24.0882 59.317 26.5361V36.1205H54.4626V27.283C54.4626 25.9553 54.1722 24.9699 53.5913 24.3268C53.0105 23.6629 52.1703 23.331 51.0708 23.331C49.8468 23.331 48.8718 23.7148 48.1457 24.4824C47.4196 25.2292 47.0566 26.3494 47.0566 27.8431V36.1205H42.2021V19.379H46.8387V21.3394C47.4818 20.6341 48.2805 20.0947 49.2348 19.7213C50.1891 19.3271 51.2367 19.1301 52.3777 19.1301Z" fill="white"/>
<path d="M52.3777 19.1301C54.4523 19.1301 56.1223 19.7524 57.3877 20.9971C58.6739 22.2419 59.317 24.0882 59.317 26.5361V36.1205H54.4626V27.283C54.4626 25.9553 54.1722 24.9699 53.5913 24.3268C53.0105 23.6629 52.1703 23.331 51.0708 23.331C49.8468 23.331 48.8718 23.7148 48.1457 24.4824C47.4196 25.2292 47.0566 26.3494 47.0566 27.8431V36.1205H42.2021V19.379H46.8387V21.3394C47.4818 20.6341 48.2805 20.0947 49.2348 19.7213C50.1891 19.3271 51.2367 19.1301 52.3777 19.1301Z" fill="url(#paint6_linear_11_7226)"/>
<path d="M32.5609 31.4527H22.4476L20.5182 36.1204H15.3527L25.0615 14.3378H30.0404L39.7803 36.1204H34.4902L32.5609 31.4527ZM30.9739 27.6252L27.5198 19.2856L24.0657 27.6252H30.9739Z" fill="white"/>
<path d="M32.5609 31.4527H22.4476L20.5182 36.1204H15.3527L25.0615 14.3378H30.0404L39.7803 36.1204H34.4902L32.5609 31.4527ZM30.9739 27.6252L27.5198 19.2856L24.0657 27.6252H30.9739Z" fill="url(#paint7_linear_11_7226)"/>
<path d="M175.647 14.0391C167.479 14.0391 164.128 22.6719 164.128 22.6719C164.128 22.6719 168.05 15.3672 175.647 15.3672C183.244 15.3672 187.175 22.6719 187.175 22.6719C187.175 22.6719 183.829 14.0391 175.647 14.0391ZM175.641 20.341V20.3809L175.01 22.4793L174.538 21.377C174.538 21.377 173.954 25.2617 167.672 24.4715C171.284 26.218 172.599 28.2301 173.038 29.7375C173.197 30.2887 173.569 30.7402 174.06 31.0059C174.558 31.2582 175.123 31.298 175.647 31.1055C176.172 31.298 176.743 31.2582 177.234 31.0059C177.726 30.7402 178.091 30.2887 178.25 29.7375C178.702 28.2301 180.024 26.218 183.616 24.4715C177.341 25.2617 176.763 21.377 176.763 21.377L176.291 22.4793L175.654 20.3809V20.341L175.647 20.3609L175.641 20.341ZM166.257 27.1012C163.597 27.048 160.788 28.9539 159.71 31.3512C159.71 31.3512 163.423 29.2527 165.633 28.9605C162.537 30.6008 161.6 33.5824 161.6 33.5824L167.101 31.1121C167.101 31.1121 165.487 33.5957 164.499 36.7168C167.426 35.5879 169.179 33.1176 169.179 33.1176C169.179 33.1176 169.279 35.0234 167.652 38.0117C170.434 36.6437 170.793 34.4855 170.793 34.4855L171.988 36.916C172.095 29.7242 169.272 27.1609 166.257 27.1012ZM185.044 27.1012C182.029 27.1609 179.207 29.7242 179.3 36.916L180.515 34.4855C180.515 34.4855 180.867 36.6437 183.643 38.0117C182.022 35.0234 182.122 33.1176 182.122 33.1176C182.122 33.1176 183.868 35.5879 186.797 36.7168C185.814 33.5957 184.2 31.1121 184.2 31.1121L189.692 33.5824C189.692 33.5824 188.763 30.6008 185.661 28.9605C187.873 29.2527 191.585 31.3512 191.585 31.3512C190.509 28.9539 187.693 27.048 185.044 27.1012ZM174.937 28.416L174.917 30.5012C172.951 29.2328 174.937 28.416 174.937 28.416ZM176.358 28.416C176.358 28.416 178.35 29.2328 176.378 30.5012L176.358 28.416Z" fill="black"/>
<path d="M175.647 14.0391C167.479 14.0391 164.128 22.6719 164.128 22.6719C164.128 22.6719 168.05 15.3672 175.647 15.3672C183.244 15.3672 187.175 22.6719 187.175 22.6719C187.175 22.6719 183.829 14.0391 175.647 14.0391ZM175.641 20.341V20.3809L175.01 22.4793L174.538 21.377C174.538 21.377 173.954 25.2617 167.672 24.4715C171.284 26.218 172.599 28.2301 173.038 29.7375C173.197 30.2887 173.569 30.7402 174.06 31.0059C174.558 31.2582 175.123 31.298 175.647 31.1055C176.172 31.298 176.743 31.2582 177.234 31.0059C177.726 30.7402 178.091 30.2887 178.25 29.7375C178.702 28.2301 180.024 26.218 183.616 24.4715C177.341 25.2617 176.763 21.377 176.763 21.377L176.291 22.4793L175.654 20.3809V20.341L175.647 20.3609L175.641 20.341ZM166.257 27.1012C163.597 27.048 160.788 28.9539 159.71 31.3512C159.71 31.3512 163.423 29.2527 165.633 28.9605C162.537 30.6008 161.6 33.5824 161.6 33.5824L167.101 31.1121C167.101 31.1121 165.487 33.5957 164.499 36.7168C167.426 35.5879 169.179 33.1176 169.179 33.1176C169.179 33.1176 169.279 35.0234 167.652 38.0117C170.434 36.6437 170.793 34.4855 170.793 34.4855L171.988 36.916C172.095 29.7242 169.272 27.1609 166.257 27.1012ZM185.044 27.1012C182.029 27.1609 179.207 29.7242 179.3 36.916L180.515 34.4855C180.515 34.4855 180.867 36.6437 183.643 38.0117C182.022 35.0234 182.122 33.1176 182.122 33.1176C182.122 33.1176 183.868 35.5879 186.797 36.7168C185.814 33.5957 184.2 31.1121 184.2 31.1121L189.692 33.5824C189.692 33.5824 188.763 30.6008 185.661 28.9605C187.873 29.2527 191.585 31.3512 191.585 31.3512C190.509 28.9539 187.693 27.048 185.044 27.1012ZM174.937 28.416L174.917 30.5012C172.951 29.2328 174.937 28.416 174.937 28.416ZM176.358 28.416C176.358 28.416 178.35 29.2328 176.378 30.5012L176.358 28.416Z" fill="url(#paint8_linear_11_7226)"/>
<defs>
<linearGradient id="paint0_linear_11_7226" x1="141.55" y1="1.99159" x2="161.736" y2="7.23605" gradientUnits="userSpaceOnUse">
<stop stop-color="#6A36FF"/>
<stop offset="1" stop-color="#AC5FE6"/>
</linearGradient>
<linearGradient id="paint1_linear_11_7226" x1="122.21" y1="7.72985" x2="148.006" y2="19.2987" gradientUnits="userSpaceOnUse">
<stop stop-color="#6A36FF"/>
<stop offset="1" stop-color="#AC5FE6"/>
</linearGradient>
<linearGradient id="paint2_linear_11_7226" x1="109.893" y1="7.89447" x2="126.318" y2="12.1182" gradientUnits="userSpaceOnUse">
<stop stop-color="#6A36FF"/>
<stop offset="1" stop-color="#AC5FE6"/>
</linearGradient>
<linearGradient id="paint3_linear_11_7226" x1="88.0677" y1="-0.0667763" x2="118.235" y2="12.0352" gradientUnits="userSpaceOnUse">
<stop stop-color="#6A36FF"/>
<stop offset="1" stop-color="#AC5FE6"/>
</linearGradient>
<linearGradient id="paint4_linear_11_7226" x1="76.9759" y1="-4.56434" x2="87.0388" y2="-3.52154" gradientUnits="userSpaceOnUse">
<stop stop-color="#6A36FF"/>
<stop offset="1" stop-color="#AC5FE6"/>
</linearGradient>
<linearGradient id="paint5_linear_11_7226" x1="62.4182" y1="1.99159" x2="82.6036" y2="7.23606" gradientUnits="userSpaceOnUse">
<stop stop-color="#6A36FF"/>
<stop offset="1" stop-color="#AC5FE6"/>
</linearGradient>
<linearGradient id="paint6_linear_11_7226" x1="43.1288" y1="7.89447" x2="67.5797" y2="18.2485" gradientUnits="userSpaceOnUse">
<stop stop-color="#6A36FF"/>
<stop offset="1" stop-color="#AC5FE6"/>
</linearGradient>
<linearGradient id="paint7_linear_11_7226" x1="16.6752" y1="-0.0667763" x2="50.3477" y2="15.8074" gradientUnits="userSpaceOnUse">
<stop stop-color="#6A36FF"/>
<stop offset="1" stop-color="#AC5FE6"/>
</linearGradient>
<linearGradient id="paint8_linear_11_7226" x1="161.436" y1="-1.81383" x2="202.355" y2="21.0582" gradientUnits="userSpaceOnUse">
<stop stop-color="#6A36FF"/>
<stop offset="1" stop-color="#AC5FE6"/>
</linearGradient>
</defs>
</svg>
