<svg width="86" height="29" viewBox="0 0 86 29" fill="none" xmlns="http://www.w3.org/2000/svg">
<path d="M47.2888 6.93085C47.2888 3.63187 49.9037 0.95752 53.1294 0.95752H79.2688C82.495 0.95752 85.1096 3.63187 85.1096 6.93085V22.9842C85.1096 26.2831 82.495 28.9575 79.2688 28.9575H53.1294C49.9037 28.9575 47.2888 26.2831 47.2888 22.9842V6.93085Z" fill="#3843FF"/>
<path d="M19.8554 11.6997V12.8677C19.8554 16.722 18.1619 19.8755 12.0884 19.8755H11.2709C9.16851 19.8755 7.15375 19.8754 5.25584 19.5834V24.8393H0V5.27588C3.3287 4.89629 7.15381 4.69189 10.6869 4.69189H11.5045C18.0451 4.69189 19.8554 7.8454 19.8554 11.6997ZM10.4533 15.2036C14.5996 15.2036 14.5996 13.9772 14.5996 12.2837C14.5996 10.5609 14.5996 9.36375 10.6577 9.36375C9.43133 9.36375 7.183 9.45136 5.25584 9.62658V14.9408C7.06621 15.1744 8.64292 15.2036 10.4533 15.2036Z" fill="#210505"/>
<path d="M44.1416 24.8393H39.0609L35.1482 18.7075C33.0751 18.7075 31.1188 18.7075 29.25 18.4155V24.8393H23.9941V5.27588C27.3228 4.89629 31.148 4.69189 34.6811 4.69189H35.4986C42.0392 4.69189 43.8496 7.58264 43.8496 11.1157V12.2837C43.8496 14.7364 43.032 16.8679 40.5209 17.9483L44.1416 23.6713V24.8393ZM34.7394 9.36375C33.3963 9.36375 31.1771 9.45136 29.25 9.62658V13.7728C31.0603 14.0064 32.8415 14.0356 33.8343 14.0356C38.5061 14.0356 38.5937 13.218 38.5937 11.3785C38.5937 10.3273 38.5645 9.36375 34.7394 9.36375Z" fill="#210505"/>
<path d="M72.4355 23.7085V24.8765H67.7061L66.0117 21.0806H56.1719L54.5078 24.8765H49.7773V23.7085L54.1279 14.5103L58.4785 5.31299H63.7344L72.4355 23.7085ZM81.3418 24.8765H76.0859V5.31299H81.3418V24.8765ZM58.1279 16.7007H64.085L61.1064 10.0142L58.1279 16.7007Z" fill="white"/>
</svg>
